<?xml version="1.0" encoding="utf-8"?>
<!-- Generator: Adobe Illustrator 16.0.0, SVG Export Plug-In . SVG Version: 6.00 Build 0)  -->
<!DOCTYPE svg PUBLIC "-//W3C//DTD SVG 1.1//EN" "http://www.w3.org/Graphics/SVG/1.1/DTD/svg11.dtd">
<svg version="1.1" id="Layer_1" xmlns="http://www.w3.org/2000/svg" xmlns:xlink="http://www.w3.org/1999/xlink" x="0px" y="0px"
	 width="240.939px" height="155.91px" viewBox="0 0 240.939 155.91" enable-background="new 0 0 240.939 155.91"
	 xml:space="preserve">
<g opacity="0.15">
	<g>
		<path fill="#2BA9E0" d="M119.606,59.657c0,6.982,5.662,12.642,12.644,12.642c6.98,0,12.642-5.66,12.642-12.642
			c0-6.98-5.66-12.64-12.642-12.64C125.269,47.017,119.606,52.677,119.606,59.657z"/>
	</g>
	<g>
		<g>
			<path fill="#2BA9E0" d="M117.453,95.557c-9.13,0-28.608,4.396-28.608,13.523s19.037,15.75,28.167,15.75
				c9.125,0,24.057,0.822,24.057-8.305S126.579,95.557,117.453,95.557z"/>
		</g>
		<g>
			<g>
				<path fill="#2BA9E0" d="M138.269,80.576c4.896,5.113,4.2,12.241,4.2,19.879c0,9.672-1.119,18.013-8.493,23.154
					c13.629-4.205,24.905-14.449,29.954-26.858c6.98-17.165,0.48-30.085-10.431-41.798c0.332,1.517,0.52,3.088,0.52,4.704
					C154.019,69.591,147.359,77.965,138.269,80.576z"/>
			</g>
			<g>
				<path fill="#2BA9E0" d="M95.948,118.583c-4.176-4.953,7.021-7.019,7.021-14.003c0-14.567,3.384,0.805,17.5-0.875
					c-2.422-3.51,22.875,16.835,22.875,12.25c0-12.021,2.976-39.125,15-39.125c0.993,0-5.272-21.431-4.317-21.303
					c-11.808-11.697-33.083-29.817-38.692-36.632c2.865,29.846-27.182,19.001-38.29,46.503
					C69.593,83.852,76.311,106.662,95.948,118.583z"/>
			</g>
		</g>
	</g>
</g>
</svg>
