<svg xmlns="http://www.w3.org/2000/svg" xmlns:xlink="http://www.w3.org/1999/xlink" id="JBS-logo-Layer_1" xml:space="preserve" height="70" viewBox="0 0 166 70" width="166" version="1.1" y="0px" x="0px" enable-background="new 0 0 166 70">	<g fill="#5F6062">		<path d="m4.984 68.552v-11.329h2.493v11.329h-2.493z"/>		<path d="m19.877 68.552l-5.487-7.202v7.202h-2.461v-11.329h2.299l5.309 6.975v-6.975h2.46v11.329h-2.12z"/>		<path d="m31.467 59.522v9.03h-2.493v-9.03h-3.447v-2.299h9.388v2.299h-3.448z"/>		<path d="m38.445 68.552v-11.329h8.546v2.217h-6.07v2.299h5.341v2.217h-5.341v2.379h6.15v2.217h-8.626z"/>		<path d="m57.788 68.552l-2.428-3.625h-1.958v3.625h-2.493v-11.329h5.179c2.671 0 4.273 1.408 4.273 3.739v0.032c0 1.83-0.987 2.979-2.428 3.512l2.767 4.046h-2.912zm0.049-7.461c0-1.068-0.745-1.619-1.959-1.619h-2.476v3.254h2.525c1.214 0 1.91-0.648 1.91-1.602v-0.033z"/>		<path d="m72.178 68.552l-5.487-7.202v7.202h-2.46v-11.329h2.298l5.309 6.975v-6.975h2.46v11.329h-2.12z"/>		<path d="m87.071 68.552l-1.036-2.541h-4.791l-1.036 2.541h-2.541l4.856-11.411h2.298l4.855 11.411h-2.605zm-3.431-8.416l-1.505 3.674h3.011l-1.506-3.674z"/>		<path d="m98.177 59.522v9.03h-2.493v-9.03h-3.447v-2.299h9.388v2.299h-3.443z"/>		<path d="m105.27 68.552v-11.329h2.493v11.329h-2.49z"/>		<path d="m117.72 68.746c-3.496 0-6.004-2.605-6.004-5.826v-0.032c0-3.221 2.54-5.859 6.036-5.859 3.495 0 6.004 2.605 6.004 5.826v0.033c-0.01 3.22-2.55 5.858-6.04 5.858zm3.43-5.858c0-1.943-1.424-3.562-3.43-3.562-2.008 0-3.4 1.587-3.4 3.529v0.033c0 1.942 1.425 3.56 3.432 3.56s3.398-1.587 3.398-3.529v-0.031z"/>		<path d="m135.54 68.552l-5.486-7.202v7.202h-2.461v-11.329h2.299l5.308 6.975v-6.975h2.461v11.329h-2.12z"/>		<path d="m150.43 68.552l-1.036-2.541h-4.79l-1.036 2.541h-2.541l4.855-11.411h2.297l4.857 11.411h-2.61zm-3.43-8.416l-1.505 3.674h3.011l-1.51-3.674z"/>		<path d="m156.4 68.552v-11.329h2.493v9.064h5.649v2.265h-8.14z"/>	</g><g fill="#960019">	<path d="m70.657 1.92v30.032c0 5.393-2.398 7.724-6.261 7.724-3.065 0-5.542-1.543-8.042-4.158-1.134 3.196-2.966 6.061-5.318 8.41 3.137 2.991 7.502 5.27 13.627 5.27 9.856 0 16.515-5.461 16.515-16.781v-30.497h-10.521z"/>	<path d="m117.46 24.16c3.33-1.864 6.127-4.794 6.127-10.055v-0.133c0-7.325-5.86-12.053-15.381-12.053h-21.645v46.612h22.174c10.521 0 17.447-4.262 17.447-12.785v-0.133c0-6.259-3.33-9.388-8.73-11.453zm-20.906-13.25h10.121c4.33 0 6.727 1.731 6.727 4.795v0.133c0 3.463-2.864 4.927-7.392 4.927h-9.456v-9.855zm19.446 23.571c0 3.463-2.73 5.061-7.259 5.061h-12.186v-10.254h11.854c5.26 0 7.59 1.932 7.59 5.061v0.132z"/>	<path d="m150.22 20.632c-8.058-2.064-10.055-3.064-10.055-6.126v-0.134c0-2.264 2.064-4.062 5.991-4.062 3.93 0 7.992 1.732 12.12 4.594l5.327-7.724c-4.726-3.795-10.519-5.926-17.313-5.926-9.52 0-16.314 5.594-16.314 14.05v0.133c0 9.256 6.061 11.853 15.447 14.25 7.794 1.997 9.391 3.329 9.391 5.927v0.133c0 2.731-2.529 4.394-6.725 4.394-5.328 0-9.724-2.197-13.917-5.66l-6.06 7.258c5.593 4.995 12.718 7.458 19.776 7.458 10.056 0 17.113-5.194 17.113-14.45v-0.134c-0.01-8.122-5.34-11.518-14.79-13.981z"/>	<path d="m47.466 25.465c0-12.811-10.422-23.233-23.233-23.233s-23.233 10.422-23.233 23.233c0 12.52 9.956 22.752 22.366 23.211 0.103 0.005 0.208 0.005 0.311 0.008 0.183 0.009 0.368 0.014 0.554 0.014h0.042c0.267-0.001 0.532-0.008 0.797-0.021 12.424-0.444 22.396-10.683 22.396-23.212zm-12.551 10.893c-0.752-5.222-5.262-9.251-10.71-9.251-5.413 0.015-9.896 4.032-10.653 9.236-0.591-1.386-0.92-2.909-0.923-4.506-0.008-3.1 1.191-6.017 3.378-8.214s5.098-3.411 8.23-3.419c6.382 0 11.587 5.194 11.603 11.58 0.003 1.598-0.316 3.147-0.925 4.574zm-10.682 7.057h-0.004c-3.03-0.001-5.501-2.468-5.508-5.499-0.007-3.039 2.46-5.519 5.511-5.527 3.034 0 5.508 2.467 5.515 5.501 0.004 1.472-0.566 2.858-1.604 3.901-1.035 1.041-2.413 1.616-3.882 1.623-0.01 0-0.019 0.001-0.028 0.001zm0-35.901c9.898 0 17.951 8.053 17.951 17.951 0 2.141-0.378 4.195-1.069 6.1-0.133-9.196-7.66-16.644-16.879-16.644h-0.044c-4.511 0.011-8.748 1.778-11.93 4.975-3.116 3.131-4.85 7.268-4.91 11.673-0.692-1.907-1.07-3.962-1.07-6.105 0-9.897 8.053-17.95 17.951-17.95z"/></g></svg>